<svg width="1024" height="1024" viewBox="0 0 1024 1024" fill="none" xmlns="http://www.w3.org/2000/svg">
<rect width="1024" height="1024" rx="64" fill="#000099"/>
<path d="M463.75 714H221V338.75H458V417.5H320.25V485.25H446.75V562.25H320.25V635.25H463.75V714ZM759.75 521C802 536.5 823.25 565.5 823.25 608.25C823.25 642.5 810.5 668.75 785.25 686.75C759.75 705 724.75 714 680 714H532.5V338.75H678C726 338.75 761 347 782.75 363.5C804.25 380 815.25 404 815.25 435.5C815.25 475.5 796.75 504 759.75 521ZM631.75 485.25H672.75C687.75 485.25 698.75 481.75 706.25 474.25C713.5 466.75 717.25 458.5 717.25 449.25C717.25 427 702.25 415.75 672.75 415.75H631.75V485.25ZM631.75 637H673.25C690.5 637 703 633.5 711 626C719 618.5 723 609.25 723 597.75C723 571.75 706 558.75 672.5 558.75H631.75V637Z" fill="white"/>
</svg>
