<svg width="603" height="376" viewBox="0 0 603 376" fill="none" xmlns="http://www.w3.org/2000/svg">
<path d="M242.75 375.25H0V0H237V78.75H99.25V146.5H225.75V223.5H99.25V296.5H242.75V375.25ZM538.75 182.25C581 197.75 602.25 226.75 602.25 269.5C602.25 303.75 589.5 330 564.25 348C538.75 366.25 503.75 375.25 459 375.25H311.5V0H457C505 0 540 8.25 561.75 24.75C583.25 41.25 594.25 65.25 594.25 96.75C594.25 136.75 575.75 165.25 538.75 182.25ZM410.75 146.5H451.75C466.75 146.5 477.75 143 485.25 135.5C492.5 128 496.25 119.75 496.25 110.5C496.25 88.25 481.25 77 451.75 77H410.75V146.5ZM410.75 298.25H452.25C469.5 298.25 482 294.75 490 287.25C498 279.75 502 270.5 502 259C502 233 485 220 451.5 220H410.75V298.25Z" fill="white"/>
</svg>
